<svg width="41" height="41" viewBox="0 0 41 41" fill="none" xmlns="http://www.w3.org/2000/svg">
<path d="M32.75 40.25H7.75C5.76088 40.25 3.85322 39.4598 2.4467 38.0533C1.04018 36.6468 0.25 34.7391 0.25 32.75L0.25 7.75C0.25 5.76088 1.04018 3.85322 2.4467 2.4467C3.85322 1.04018 5.76088 0.25 7.75 0.25L32.75 0.25C34.7391 0.25 36.6468 1.04018 38.0533 2.4467C39.4598 3.85322 40.25 5.76088 40.25 7.75V32.75C40.25 34.7391 39.4598 36.6468 38.0533 38.0533C36.6468 39.4598 34.7391 40.25 32.75 40.25Z" fill="#ECF2F7"/>
<path d="M23.4022 12.4903C22.6388 13.4048 21.4173 14.126 20.1959 14.023C20.0432 12.7866 20.6412 11.4729 21.341 10.6615C22.1044 9.72125 23.4404 9.05152 24.5219 9C24.6491 10.2879 24.1529 11.5501 23.4022 12.4903Z" fill="#151515"/>
<path d="M24.5086 14.2679C22.7401 14.1649 21.226 15.2854 20.3862 15.2854C19.5338 15.2854 18.2487 14.3194 16.8491 14.3452C15.0297 14.371 13.3374 15.4142 12.4086 17.0756C10.5001 20.3986 11.9124 25.3185 13.7573 28.0232C14.6607 29.3627 15.7422 30.8309 17.1672 30.7794C18.5159 30.7279 19.0503 29.8907 20.6789 29.8907C22.3202 29.8907 22.791 30.7794 24.216 30.7536C25.6919 30.7279 26.6207 29.4142 27.5241 28.0747C28.5547 26.5549 28.9746 25.0738 29 24.9965C28.9746 24.9708 26.1499 23.876 26.1245 20.5789C26.0991 17.8227 28.3511 16.509 28.4529 16.4317C27.1805 14.5255 25.1957 14.3194 24.5086 14.2679Z" fill="#151515"/>
</svg>
