<svg width="57" height="34" viewBox="0 0 57 34" fill="none" xmlns="http://www.w3.org/2000/svg">
<path d="M16.0223 12.3487C16.0076 12.9169 16.0777 13.4841 16.2303 14.0316C16.3983 14.4999 16.6006 14.9551 16.8356 15.3936C16.9197 15.5233 16.9656 15.674 16.968 15.8286C16.968 16.0176 16.8545 16.2069 16.6087 16.3958L15.4174 17.1901C15.2737 17.2936 15.1028 17.3527 14.9258 17.3602C14.7104 17.3454 14.5083 17.251 14.3586 17.0955C14.1037 16.8217 13.8756 16.5241 13.6776 16.2068C13.4885 15.8853 13.2993 15.5258 13.0914 15.0911C11.6165 16.8305 9.76327 17.7002 7.53184 17.7002C5.94289 17.7002 4.6765 17.2462 3.74994 16.3382C2.82338 15.4302 2.35059 14.2207 2.35059 12.708C2.35059 11.1006 2.91785 9.79587 4.0714 8.81257C5.22495 7.82926 6.7565 7.33755 8.70419 7.33755C9.37498 7.34303 10.0446 7.39359 10.7086 7.48888C11.4083 7.58346 12.1269 7.73468 12.8832 7.90492V6.52449C12.8832 5.08687 12.5806 4.08519 11.9945 3.4989C11.3892 2.91272 10.3683 2.62909 8.91216 2.62909C8.22402 2.62906 7.53836 2.71159 6.86988 2.87489C6.17474 3.0405 5.49226 3.25535 4.82761 3.51782C4.61256 3.61403 4.39148 3.69614 4.16576 3.76362C4.06785 3.7959 3.96607 3.81499 3.86311 3.82037C3.59839 3.82037 3.46598 3.63132 3.46598 3.23419V2.30763C3.46598 2.00497 3.50381 1.77798 3.59839 1.64579C3.74108 1.47342 3.92259 1.33733 4.12804 1.24866C4.88649 0.873389 5.68611 0.587829 6.5107 0.397764C7.47425 0.150523 8.46589 0.0297435 9.46062 0.0384684C11.7113 0.0384684 13.356 0.548984 14.415 1.57012C15.455 2.59126 15.9845 4.14183 15.9845 6.22194V12.3487H16.0223ZM8.34501 15.2229C9.00838 15.2156 9.66617 15.1007 10.2927 14.8825C10.9868 14.6424 11.606 14.2251 12.0891 13.6719C12.3939 13.3234 12.6139 12.909 12.732 12.4613C12.8619 11.9227 12.9254 11.3702 12.9211 10.8161V10.0228C12.3477 9.88319 11.767 9.77587 11.1816 9.70129C10.592 9.6266 9.99824 9.58887 9.40387 9.58834C8.13693 9.58834 7.21037 9.83414 6.58636 10.345C5.96235 10.8558 5.6598 11.5741 5.6598 12.5196C5.6598 13.4083 5.88679 14.0701 6.35948 14.524C6.81346 14.9968 7.4752 15.2237 8.34501 15.2237V15.2229ZM23.5295 17.2652C23.1891 17.2652 22.9622 17.2085 22.8109 17.0761C22.6595 16.9627 22.5272 16.6978 22.4137 16.3386L17.9698 1.72145C17.8836 1.47677 17.8265 1.22282 17.7996 0.964811C17.7996 0.662155 17.951 0.49202 18.2536 0.49202H20.1067C20.466 0.49202 20.7121 0.548768 20.8443 0.681071C20.9956 0.794567 21.109 1.05939 21.2226 1.41858L24.3994 13.9367L27.3492 1.4189C27.4438 1.04058 27.5572 0.794891 27.7085 0.681396C27.8598 0.5679 28.1245 0.492344 28.4651 0.492344H29.9784C30.3377 0.492344 30.5837 0.549092 30.735 0.681396C30.8864 0.794891 31.0187 1.05972 31.0943 1.4189L34.0821 14.0884L37.3524 1.4189C37.4659 1.04058 37.5982 0.794891 37.7307 0.681396C37.882 0.5679 38.1278 0.492344 38.4682 0.492344H40.2269C40.5295 0.492344 40.6997 0.643672 40.6997 0.965135C40.6952 1.06688 40.6826 1.16809 40.6618 1.26779C40.6322 1.42909 40.5879 1.58735 40.5294 1.74058L35.9722 16.3578C35.8588 16.7359 35.7264 16.9818 35.5751 17.0953C35.3613 17.2321 35.1099 17.2983 34.8565 17.2843H33.2301C32.8708 17.2843 32.6248 17.2276 32.4735 17.0953C32.3221 16.963 32.1898 16.717 32.1142 16.3386L29.1834 4.14183L26.2712 16.3197C26.1766 16.698 26.0632 16.9437 25.9119 17.0764C25.7606 17.209 25.4959 17.2654 25.1553 17.2654L23.5295 17.2652ZM47.8284 17.7757C46.8477 17.7768 45.8703 17.6625 44.9163 17.4353C43.9708 17.2083 43.2333 16.9625 42.7417 16.6787C42.4391 16.5086 42.2312 16.3194 42.1555 16.149C42.0819 15.9821 42.0433 15.8019 42.042 15.6194V14.6557C42.042 14.2585 42.1934 14.0695 42.477 14.0695C42.5928 14.0699 42.7077 14.089 42.8174 14.1262C42.9309 14.1641 43.101 14.2397 43.2902 14.3153C43.9581 14.6091 44.6554 14.8309 45.3703 14.9771C46.111 15.1275 46.8648 15.2035 47.6205 15.2041C48.8118 15.2041 49.7385 14.9961 50.3814 14.5801C50.6894 14.3942 50.9427 14.1301 51.1155 13.8146C51.2883 13.499 51.3744 13.1434 51.365 12.7837C51.3717 12.5403 51.33 12.298 51.2424 12.0708C51.1547 11.8435 51.0229 11.636 50.8545 11.46C50.5141 11.1008 49.8709 10.7791 48.9447 10.4764L46.2022 9.62563C44.8217 9.19078 43.8006 8.54785 43.1767 7.69674C42.5679 6.91196 42.2355 5.948 42.2312 4.95479C42.2158 4.22261 42.3918 3.4991 42.7417 2.85576C43.0795 2.2474 43.544 1.71863 44.1037 1.30519C44.693 0.859001 45.3598 0.525528 46.0703 0.32156C46.8444 0.0987504 47.6469 -0.00937358 48.4524 0.000636403C48.8759 -0.00243395 49.2992 0.0228438 49.7193 0.0763003C50.1543 0.133048 50.5516 0.208712 50.9484 0.284268C51.3268 0.378848 51.686 0.47332 52.0263 0.586924C52.3023 0.672278 52.5685 0.786363 52.8206 0.927303C53.0433 1.03958 53.2373 1.2013 53.3879 1.40009C53.5108 1.58411 53.5705 1.80315 53.558 2.02411V2.91283C53.558 3.30996 53.4067 3.51814 53.123 3.51814C52.9717 3.51814 52.7259 3.44248 52.4044 3.29115C51.3266 2.79948 50.1163 2.55365 48.7738 2.55365C47.6959 2.55365 46.845 2.72378 46.2588 3.08329C45.6726 3.4428 45.3701 3.99126 45.3701 4.76627C45.3649 5.01737 45.4127 5.26674 45.5105 5.49809C45.6082 5.72944 45.7537 5.93756 45.9373 6.10888C46.3157 6.46817 47.0152 6.82747 48.0174 7.14893L50.7027 7.99939C52.0646 8.43435 53.0475 9.03945 53.6337 9.81468C54.2109 10.5754 54.517 11.5073 54.5035 12.4621C54.5132 13.2216 54.3449 13.9728 54.0119 14.6556C53.6763 15.3028 53.2055 15.8703 52.6314 16.3196C52.0071 16.8056 51.2942 17.1654 50.5324 17.3789C49.6565 17.6483 48.7446 17.7822 47.8283 17.776L47.8284 17.7757Z" fill="#252F3E"/>
<path d="M51.4024 26.9657C45.1811 31.5608 36.1423 34 28.3704 34C17.4784 34.0005 7.66424 29.9727 0.251875 23.2787C-0.334305 22.749 0.195127 22.0307 0.894802 22.4464C8.91248 27.0982 18.8023 29.9155 29.0324 29.9155C35.9344 29.9155 43.5172 28.4779 50.4949 25.5284C51.5349 25.0556 52.4237 26.2094 51.4029 26.966L51.4024 26.9657Z" fill="#FF9900"/>
<path d="M53.9936 24.0162C53.1994 22.9951 48.7367 23.5246 46.7134 23.7704C46.1081 23.8461 46.0137 23.3164 46.562 22.9195C50.1171 20.4235 55.9601 21.142 56.6409 21.974C57.3219 22.8249 56.4519 28.668 53.1237 31.4667C52.6132 31.9017 52.1215 31.6747 52.3484 31.1074C53.1049 29.2353 54.7879 25.0184 53.9936 24.0162Z" fill="#FF9900"/>
</svg>
