<svg width="58" height="58" viewBox="0 0 58 58" fill="none" xmlns="http://www.w3.org/2000/svg">
<path d="M35.7191 31.2123L30.2816 25.7748C29.9417 25.435 29.4808 25.2441 29.0002 25.2441C28.5196 25.2441 28.0586 25.435 27.7188 25.7748L22.2813 31.2123C21.9511 31.5542 21.7684 32.012 21.7725 32.4872C21.7767 32.9625 21.9673 33.4171 22.3033 33.7531C22.6394 34.0892 23.094 34.2798 23.5692 34.2839C24.0444 34.288 24.5023 34.1054 24.8441 33.7752L27.1877 31.4316V41.5037C27.1877 41.9844 27.3786 42.4454 27.7186 42.7853C28.0585 43.1253 28.5195 43.3162 29.0002 43.3162C29.4809 43.3162 29.9419 43.1253 30.2818 42.7853C30.6217 42.4454 30.8127 41.9844 30.8127 41.5037V31.4316L33.1562 33.7752C33.4981 34.1054 33.9559 34.288 34.4312 34.2839C34.9064 34.2798 35.361 34.0892 35.697 33.7531C36.0331 33.4171 36.2237 32.9625 36.2278 32.4872C36.232 32.012 36.0493 31.5542 35.7191 31.2123Z" fill="#00ACC8"/>
<path d="M45.3125 18.1251C44.6739 18.1243 44.0365 18.1795 43.4076 18.29C43.0218 14.918 41.4653 11.7882 39.0093 9.44568C36.5534 7.10316 33.3535 5.6964 29.967 5.47042C26.5805 5.24444 23.2221 6.21356 20.4766 8.20899C17.7312 10.2044 15.7727 13.0997 14.9423 16.3905C14.4946 16.3384 14.0444 16.3124 13.5938 16.3126C10.4692 16.3126 7.47256 17.5538 5.26315 19.7632C3.05374 21.9727 1.8125 24.9693 1.8125 28.0938C1.8125 31.2184 3.05374 34.215 5.26315 36.4244C7.47256 38.6339 10.4692 39.8751 13.5938 39.8751H19.9375C20.4182 39.8751 20.8792 39.6841 21.2191 39.3442C21.559 39.0043 21.75 38.5433 21.75 38.0626C21.75 37.5819 21.559 37.1209 21.2191 36.781C20.8792 36.4411 20.4182 36.2501 19.9375 36.2501H13.5938C11.4306 36.2501 9.356 35.3908 7.82641 33.8612C6.29682 32.3316 5.4375 30.257 5.4375 28.0938C5.4375 25.9307 6.29682 23.8561 7.82641 22.3265C9.356 20.7969 11.4306 19.9376 13.5938 19.9376C14.3663 19.9363 15.1347 20.05 15.8739 20.2747C16.1293 20.3526 16.3988 20.3731 16.6631 20.3346C16.9274 20.2962 17.1799 20.1999 17.4026 20.0525C17.6253 19.9051 17.8127 19.7104 17.9514 19.4821C18.09 19.2539 18.1766 18.9978 18.2048 18.7323C18.5375 15.9909 19.9007 13.4788 22.0178 11.7056C24.1349 9.93247 26.8472 9.03114 29.6044 9.1845C32.3617 9.33786 34.9574 10.5344 36.8647 12.5314C38.7721 14.5284 39.8483 17.1762 39.875 19.9376C39.8805 20.1142 39.8744 20.291 39.8569 20.4668C39.8127 20.7874 39.8551 21.1139 39.9797 21.4125C40.1043 21.7112 40.3066 21.971 40.5655 22.165C40.8245 22.359 41.1307 22.4802 41.4523 22.5159C41.7739 22.5516 42.0992 22.5006 42.3944 22.3682C43.3115 21.9551 44.3067 21.7444 45.3125 21.7501C47.2353 21.7501 49.0794 22.5139 50.439 23.8736C51.7987 25.2332 52.5625 27.0773 52.5625 29.0001C52.5625 30.9229 51.7987 32.767 50.439 34.1266C49.0794 35.4863 47.2353 36.2501 45.3125 36.2501H38.0625C37.5818 36.2501 37.1208 36.4411 36.7809 36.781C36.441 37.1209 36.25 37.5819 36.25 38.0626C36.25 38.5433 36.441 39.0043 36.7809 39.3442C37.1208 39.6841 37.5818 39.8751 38.0625 39.8751H45.3125C48.1967 39.8751 50.9628 38.7293 53.0023 36.6899C55.0417 34.6504 56.1875 31.8843 56.1875 29.0001C56.1875 26.1159 55.0417 23.3498 53.0023 21.3103C50.9628 19.2709 48.1967 18.1251 45.3125 18.1251Z" fill="#8E97AD" fill-opacity="0.2"/>
</svg>
