<svg width="15" height="14" viewBox="0 0 15 14" fill="none" xmlns="http://www.w3.org/2000/svg">
<path d="M0.6 4.0507V4.05059C0.599841 3.12442 0.972079 2.23707 1.63296 1.58821C2.29385 0.939336 3.18787 0.583441 4.11389 0.600593L4.12104 0.600725L4.12819 0.600687C5.24419 0.59476 6.30907 1.06804 7.05251 1.90039L7.5 2.40139L7.94749 1.90039C8.69093 1.06804 9.75581 0.59476 10.8718 0.600687L10.879 0.600725L10.8861 0.600593C11.8121 0.583441 12.7062 0.939336 13.367 1.58821C14.0279 2.23707 14.4002 3.12442 14.4 4.05059V4.0507C14.4 5.81527 13.3467 7.43089 11.8408 8.96122C11.0955 9.71851 10.2624 10.4322 9.43591 11.1136C9.20136 11.3069 8.96591 11.4988 8.7331 11.6886C8.30658 12.0362 7.88892 12.3766 7.50187 12.7056C7.09514 12.3569 6.65469 11.9968 6.20534 11.6294C5.99364 11.4563 5.77998 11.2816 5.56693 11.1057C4.74018 10.4232 3.90678 9.71031 3.161 8.95425C1.6541 7.42657 0.6 5.81617 0.6 4.0507Z" stroke="#7B838A" strokeWidth="1.2"/>
</svg>
