<svg width="41" height="40" viewBox="0 0 41 40" fill="none" xmlns="http://www.w3.org/2000/svg">
<path d="M33.25 40H8.25C6.26088 40 4.35322 39.2098 2.9467 37.8033C1.54018 36.3968 0.75 34.4891 0.75 32.5L0.75 7.5C0.75 5.51088 1.54018 3.60322 2.9467 2.1967C4.35322 0.790176 6.26088 0 8.25 0L33.25 0C35.2391 0 37.1468 0.790176 38.5533 2.1967C39.9598 3.60322 40.75 5.51088 40.75 7.5V32.5C40.75 34.4891 39.9598 36.3968 38.5533 37.8033C37.1468 39.2098 35.2391 40 33.25 40Z" fill="#ECF2F7"/>
<path d="M23.6413 12.6576H25.4025V9.59013C24.5491 9.49626 23.6911 9.45077 22.8325 9.45388C17.2587 9.45388 18.775 15.7651 18.5538 16.6901H15.75V20.1201H18.5525V28.7451H21.9888V20.1201H24.6788L25.1063 16.6901H21.9888C22.14 14.4201 21.3775 12.6576 23.6375 12.6576H23.6413Z" fill="#3B5999"/>
</svg>
