<svg width="137" height="34" viewBox="0 0 137 34" fill="none" xmlns="http://www.w3.org/2000/svg">
<path d="M62.64 11.38H57.33V14.908H62.46V16.888H57.33V22H55.26V9.4H62.64V11.38ZM71.5784 13H73.5224V22H71.5784V20.704C70.8464 21.724 69.7964 22.234 68.4284 22.234C67.1924 22.234 66.1364 21.778 65.2604 20.866C64.3844 19.942 63.9464 18.82 63.9464 17.5C63.9464 16.168 64.3844 15.046 65.2604 14.134C66.1364 13.222 67.1924 12.766 68.4284 12.766C69.7964 12.766 70.8464 13.27 71.5784 14.278V13ZM66.7004 19.57C67.2404 20.11 67.9184 20.38 68.7344 20.38C69.5504 20.38 70.2284 20.11 70.7684 19.57C71.3084 19.018 71.5784 18.328 71.5784 17.5C71.5784 16.672 71.3084 15.988 70.7684 15.448C70.2284 14.896 69.5504 14.62 68.7344 14.62C67.9184 14.62 67.2404 14.896 66.7004 15.448C66.1604 15.988 65.8904 16.672 65.8904 17.5C65.8904 18.328 66.1604 19.018 66.7004 19.57ZM80.0363 22.234C78.6803 22.234 77.5463 21.778 76.6343 20.866C75.7343 19.954 75.2843 18.832 75.2843 17.5C75.2843 16.156 75.7343 15.034 76.6343 14.134C77.5463 13.222 78.6803 12.766 80.0363 12.766C80.9123 12.766 81.7103 12.976 82.4303 13.396C83.1503 13.816 83.6903 14.38 84.0503 15.088L82.3763 16.06C82.1723 15.628 81.8603 15.292 81.4403 15.052C81.0323 14.8 80.5583 14.674 80.0183 14.674C79.2263 14.674 78.5603 14.944 78.0203 15.484C77.4923 16.024 77.2283 16.696 77.2283 17.5C77.2283 18.304 77.4923 18.976 78.0203 19.516C78.5603 20.056 79.2263 20.326 80.0183 20.326C80.5463 20.326 81.0203 20.2 81.4403 19.948C81.8723 19.696 82.1963 19.36 82.4123 18.94L84.0863 19.894C83.7023 20.614 83.1503 21.184 82.4303 21.604C81.7103 22.024 80.9123 22.234 80.0363 22.234ZM86.8808 18.328C87.0248 19.012 87.3548 19.54 87.8708 19.912C88.3868 20.272 89.0168 20.452 89.7608 20.452C90.7928 20.452 91.5668 20.08 92.0828 19.336L93.6848 20.272C92.7968 21.58 91.4828 22.234 89.7428 22.234C88.2788 22.234 87.0968 21.79 86.1968 20.902C85.2968 20.002 84.8468 18.868 84.8468 17.5C84.8468 16.156 85.2908 15.034 86.1788 14.134C87.0668 13.222 88.2068 12.766 89.5988 12.766C90.9188 12.766 91.9988 13.228 92.8388 14.152C93.6908 15.076 94.1168 16.198 94.1168 17.518C94.1168 17.722 94.0928 17.992 94.0448 18.328H86.8808ZM86.8628 16.744H92.1548C92.0228 16.012 91.7168 15.46 91.2368 15.088C90.7688 14.716 90.2168 14.53 89.5808 14.53C88.8608 14.53 88.2608 14.728 87.7808 15.124C87.3008 15.52 86.9948 16.06 86.8628 16.744ZM100.921 12.766C102.157 12.766 103.213 13.222 104.089 14.134C104.965 15.046 105.403 16.168 105.403 17.5C105.403 18.82 104.965 19.942 104.089 20.866C103.213 21.778 102.157 22.234 100.921 22.234C99.5534 22.234 98.5034 21.724 97.7714 20.704V22H95.8274V9.4H97.7714V14.278C98.5034 13.27 99.5534 12.766 100.921 12.766ZM98.5814 19.57C99.1214 20.11 99.7994 20.38 100.615 20.38C101.431 20.38 102.109 20.11 102.649 19.57C103.189 19.018 103.459 18.328 103.459 17.5C103.459 16.672 103.189 15.988 102.649 15.448C102.109 14.896 101.431 14.62 100.615 14.62C99.7994 14.62 99.1214 14.896 98.5814 15.448C98.0414 15.988 97.7714 16.672 97.7714 17.5C97.7714 18.328 98.0414 19.018 98.5814 19.57ZM111.413 22.234C110.093 22.234 108.971 21.778 108.047 20.866C107.123 19.954 106.661 18.832 106.661 17.5C106.661 16.168 107.123 15.046 108.047 14.134C108.971 13.222 110.093 12.766 111.413 12.766C112.745 12.766 113.867 13.222 114.779 14.134C115.703 15.046 116.165 16.168 116.165 17.5C116.165 18.832 115.703 19.954 114.779 20.866C113.867 21.778 112.745 22.234 111.413 22.234ZM109.415 19.534C109.955 20.074 110.621 20.344 111.413 20.344C112.205 20.344 112.871 20.074 113.411 19.534C113.951 18.994 114.221 18.316 114.221 17.5C114.221 16.684 113.951 16.006 113.411 15.466C112.871 14.926 112.205 14.656 111.413 14.656C110.621 14.656 109.955 14.926 109.415 15.466C108.875 16.006 108.605 16.684 108.605 17.5C108.605 18.316 108.875 18.994 109.415 19.534ZM122.171 22.234C120.851 22.234 119.729 21.778 118.805 20.866C117.881 19.954 117.419 18.832 117.419 17.5C117.419 16.168 117.881 15.046 118.805 14.134C119.729 13.222 120.851 12.766 122.171 12.766C123.503 12.766 124.625 13.222 125.537 14.134C126.461 15.046 126.923 16.168 126.923 17.5C126.923 18.832 126.461 19.954 125.537 20.866C124.625 21.778 123.503 22.234 122.171 22.234ZM120.173 19.534C120.713 20.074 121.379 20.344 122.171 20.344C122.963 20.344 123.629 20.074 124.169 19.534C124.709 18.994 124.979 18.316 124.979 17.5C124.979 16.684 124.709 16.006 124.169 15.466C123.629 14.926 122.963 14.656 122.171 14.656C121.379 14.656 120.713 14.926 120.173 15.466C119.633 16.006 119.363 16.684 119.363 17.5C119.363 18.316 119.633 18.994 120.173 19.534ZM136.637 22H134.315L130.625 17.842V22H128.681V9.4H130.625V16.978L134.117 13H136.493L132.533 17.41L136.637 22Z" fill="#6C6A81"/>
<circle cx="17" cy="17" r="14.875" fill="url(#paint0_linear_1433_33438)"/>
<path d="M22.5396 21.5492L23.2003 17.3507H19.0668V14.6274C19.0668 13.4786 19.6431 12.358 21.4945 12.358H23.375V8.78368C23.375 8.78368 21.6692 8.5 20.039 8.5C16.6333 8.5 14.4093 10.5112 14.4093 14.1508V17.3507H10.625V21.5492H14.4093V31.6991C15.169 31.8155 15.9463 31.875 16.738 31.875C17.5298 31.875 18.3071 31.8155 19.0668 31.6991V21.5492H22.5396Z" fill="white"/>
<defs>
<linearGradient id="paint0_linear_1433_33438" x1="17" y1="2.125" x2="17" y2="31.7868" gradientUnits="userSpaceOnUse">
<stop stop-color="#18ACFE"/>
<stop offset="1" stop-color="#0163E0"/>
</linearGradient>
</defs>
</svg>
