<svg width="27" height="27" viewBox="0 0 27 27" fill="none" xmlns="http://www.w3.org/2000/svg">
<path d="M13.5778 2.24381C10.8047 2.24381 8.03155 2.2388 5.2584 2.24506C3.57799 2.25007 2.39798 3.50665 2.39682 5.30318C2.391 10.6276 2.38983 15.9509 2.39798 21.2753C2.40031 23.0305 3.59312 24.3059 5.22815 24.3084C10.7942 24.3146 16.3603 24.3159 21.9252 24.3096C23.5858 24.3071 24.7496 23.018 24.7542 21.2114C24.7554 20.9195 24.7402 20.6251 24.76 20.3345C24.7996 19.7456 25.1987 19.3096 25.6735 19.3109C26.1251 19.3122 26.5417 19.7231 26.5859 20.2731C26.8768 23.8749 24.7589 26.2853 21.7495 26.2903C16.3393 26.3016 10.928 26.2978 5.51791 26.2928C2.51319 26.2903 0.547665 24.1468 0.548829 20.9007C0.551156 15.8068 0.55232 10.7116 0.548829 5.61764C0.547665 2.42171 2.52366 0.264362 5.49115 0.260604C10.9211 0.253087 16.351 0.255592 21.7809 0.260604C24.5494 0.263109 26.5952 2.47057 26.5964 5.4435C26.5987 8.88874 26.5987 12.3327 26.5975 15.778C26.5975 16.7401 26.2903 17.2463 25.7003 17.2676C25.0882 17.2901 24.753 16.7527 24.753 15.7717C24.7542 12.2638 24.7577 8.75719 24.7507 5.24931C24.7472 3.53671 23.5544 2.25258 21.9543 2.24757C19.1625 2.23629 16.3708 2.24381 13.5778 2.24381Z" fill="#A6A6A6" stroke="#A6A6A6" strokeWidth="0.325523"/>
<path d="M10.9397 15.1688C10.3427 15.1688 9.78296 15.1738 9.22437 15.1676C8.81009 15.1625 8.47145 14.9909 8.46679 14.4986C8.46214 13.9962 8.7647 13.7594 9.22554 13.7606C10.0588 13.7619 10.8931 13.7519 11.7264 13.7719C12.3606 13.787 12.6271 14.0889 12.6411 14.7854C12.6562 15.5158 12.6888 16.2512 12.6259 16.9754C12.5968 17.3099 12.4351 17.7408 12.1977 17.925C10.4032 19.3206 7.50788 19.5888 5.72972 18.2871C4.16684 17.1433 3.73626 15.4332 3.83518 13.5264C3.91431 11.9917 4.36584 10.5822 5.63313 9.71905C7.29958 8.584 9.08589 8.45621 10.8943 9.33569C11.6077 9.68272 12.1151 10.2753 12.335 11.1172C12.4595 11.592 12.3106 11.9491 11.93 12.1708C11.5495 12.3926 11.1794 12.3287 10.8792 11.9729C10.7884 11.8664 10.7128 11.7424 10.6441 11.6171C10.0762 10.5873 9.23136 10.1701 8.14328 10.3242C6.96443 10.4908 6.22197 11.2124 5.87751 12.4327C5.61102 13.376 5.59822 14.3269 5.817 15.2728C6.25223 17.1595 7.81045 18.0891 9.66775 17.4539C11.2388 16.9165 11.0549 17.1884 10.9397 15.1688Z" fill="#A6A6A6" stroke="#A6A6A6" strokeWidth="0.325523"/>
<path d="M18.2684 10.4901C18.2684 11.4122 18.2684 12.219 18.2684 13.1273C19.0959 13.1273 19.9023 13.1273 20.7076 13.1273C20.9788 13.1273 21.2499 13.1261 21.5211 13.1348C21.9563 13.1474 22.2181 13.3629 22.2065 13.8615C22.196 14.3263 21.9388 14.5355 21.535 14.5417C20.7798 14.5543 20.0245 14.5493 19.2692 14.5505C18.962 14.5518 18.6548 14.5505 18.3045 14.5505C18.2812 14.7522 18.2487 14.9088 18.2487 15.0654C18.2428 16.0451 18.2533 17.0248 18.2382 18.0045C18.2277 18.6961 17.9042 19.097 17.3782 19.122C16.8487 19.1483 16.5089 18.7913 16.4298 18.0935C16.3972 17.8053 16.4076 17.5109 16.4076 17.219C16.4065 14.9878 16.4007 12.7577 16.41 10.5265C16.4158 9.20727 16.6218 8.98803 17.8192 8.98301C19.1948 8.97675 20.5691 8.98552 21.9446 8.98051C22.416 8.978 22.8081 9.09451 22.8686 9.68334C22.9164 10.1544 22.5684 10.4714 21.9598 10.4826C20.9532 10.5014 19.9454 10.4876 18.9387 10.4889C18.7316 10.4901 18.5233 10.4901 18.2684 10.4901Z" fill="#A6A6A6" stroke="#A6A6A6" strokeWidth="0.325523"/>
<path d="M15.4396 13.9909C15.4396 15.2825 15.4675 16.5742 15.4221 17.8633C15.4093 18.2216 15.265 18.6589 15.0381 18.9069C14.618 19.3654 13.8732 19.0948 13.6928 18.4697C13.6195 18.2166 13.5904 17.9385 13.5893 17.6716C13.5811 15.2149 13.5811 12.7569 13.5881 10.3001C13.5893 10.0332 13.566 9.705 13.694 9.51206C13.886 9.22141 14.1711 8.90069 14.4702 8.82176C14.86 8.71778 15.2231 8.97461 15.3453 9.44566C15.4012 9.6624 15.4337 9.89292 15.4349 10.1172C15.4442 11.4088 15.4396 12.7005 15.4396 13.9909Z" fill="#A6A6A6" stroke="#A6A6A6" strokeWidth="0.325523"/>
</svg>