<svg width="40" height="41" viewBox="0 0 40 41" fill="none" xmlns="http://www.w3.org/2000/svg">
<path d="M32.5 40.25H7.5C5.51088 40.25 3.60322 39.4598 2.1967 38.0533C0.790176 36.6468 0 34.7391 0 32.75L0 7.75C0 5.76088 0.790176 3.85322 2.1967 2.4467C3.60322 1.04018 5.51088 0.25 7.5 0.25L32.5 0.25C34.4891 0.25 36.3968 1.04018 37.8033 2.4467C39.2098 3.85322 40 5.76088 40 7.75V32.75C40 34.7391 39.2098 36.6468 37.8033 38.0533C36.3968 39.4598 34.4891 40.25 32.5 40.25Z" fill="#ECF2F7"/>
<path d="M14.5097 22.5474L13.8009 25.1924L11.2122 25.2474C10.4293 23.789 10.0134 22.1619 10.0003 20.5067C9.98725 18.8515 10.3774 17.218 11.1372 15.7474L13.4422 16.1699L14.4522 18.4612C13.9981 19.7898 14.0184 21.2347 14.5097 22.5499V22.5474Z" fill="#FBBB00"/>
<path d="M30.1734 18.5239C30.5189 20.3381 30.3641 22.2121 29.7255 23.945C29.0869 25.6778 27.9886 27.2041 26.5484 28.3602L23.6446 28.2127L23.2334 25.6477C24.4322 24.9446 25.3531 23.8511 25.8421 22.5502H20.4009V18.5252H30.1746L30.1734 18.5239Z" fill="#518EF8"/>
<path d="M26.5447 28.3586C25.3803 29.2933 24.0245 29.9603 22.5734 30.3124C21.1224 30.6645 19.6117 30.693 18.1484 30.396C16.6851 30.099 15.305 29.4836 14.1061 28.5937C12.9072 27.7037 11.9188 26.5608 11.2109 25.2461L14.5084 22.5474C14.8181 23.3727 15.3044 24.1204 15.9332 24.7382C16.5619 25.356 17.3181 25.829 18.1487 26.1241C18.9793 26.4193 19.8644 26.5294 20.742 26.4469C21.6197 26.3643 22.4687 26.091 23.2297 25.6461L26.5447 28.3586Z" fill="#28B446"/>
<path d="M26.6697 12.5912L23.3735 15.29C22.6012 14.8091 21.7304 14.5084 20.8259 14.4105C19.9214 14.3126 19.0065 14.4199 18.1492 14.7244C17.2919 15.0289 16.5142 15.5228 15.8742 16.1693C15.2341 16.8159 14.7481 17.5984 14.4522 18.4587L11.1372 15.7488C11.8361 14.3986 12.8287 13.2222 14.0419 12.3059C15.2551 11.3897 16.6582 10.7569 18.1481 10.454C19.6379 10.1511 21.1767 10.1859 22.6514 10.5557C24.126 10.9256 25.4991 11.6211 26.6697 12.5912Z" fill="#F14336"/>
</svg>
