<svg width="84" height="42" viewBox="0 0 84 42" fill="none" xmlns="http://www.w3.org/2000/svg">
<path d="M33.6649 25.3606L35.3365 29.7496H32.0976L33.6656 25.3606H33.6649ZM33.0377 23.8906L29.3809 33.5016H30.7389L31.679 30.8906H35.753L36.6931 33.5016H38.0511L34.3943 23.8906H33.0363H33.0377ZM52.7777 33.51H54.0377V23.8976H52.7777V33.5086V33.51ZM39.9327 27.861C40.3506 27.2338 41.1927 26.7116 42.0222 26.7116C43.6938 26.7116 44.5296 27.861 44.5296 29.5326V33.6066H43.2696V29.7412C43.2696 28.3832 42.5381 27.8603 41.598 27.8603C40.5529 27.8603 39.8221 28.9054 39.8221 29.8455V33.5023H38.5621V26.825H39.8221L39.9271 27.8701L39.9327 27.861ZM45.5747 31.5248C45.5747 30.0548 46.9327 29.226 48.5007 29.226C49.4408 29.226 50.0687 29.436 50.2766 29.6439V29.4339C50.2766 28.3888 49.4408 27.8659 48.605 27.8659C47.8735 27.8659 47.247 28.1795 47.037 28.806L45.8876 28.2838C46.0976 27.6566 46.9327 26.7158 48.6036 26.7158C50.1716 26.7158 51.5296 27.6559 51.5296 29.5368V33.5072H50.3802V32.5671H50.2752C49.9616 33.0893 49.2301 33.7165 48.0814 33.7165C46.7234 33.7165 45.574 32.8807 45.574 31.5227L45.5747 31.5248ZM50.2752 30.6869C50.2752 30.6869 49.753 30.269 48.7072 30.269C47.4472 30.269 46.9313 31.0005 46.9313 31.529C46.9313 32.2605 47.6628 32.5741 48.2893 32.5741C49.2294 32.5741 50.2745 31.7383 50.2745 30.6932" fill="#757575"/>
<path fill-rule="evenodd" clip-rule="evenodd" d="M55.8138 36.4352L57.2838 32.9877L54.6729 26.9278H55.9328L57.918 31.5247L59.9033 26.9278H61.1632L57.0892 36.4352H55.8293H55.8138ZM74.2029 29.1202C73.8893 28.2844 73.1578 27.7622 72.427 27.7622C71.3819 27.7622 70.4418 28.7023 70.4418 30.061C70.4418 31.4197 71.3819 32.3598 72.427 32.3598C73.1585 32.3598 73.897 31.8376 74.2029 31.0998L75.2479 31.727C74.7257 32.8764 73.68 33.6079 72.427 33.6079C70.6511 33.6079 69.1881 32.0399 69.1881 30.0554C69.1881 27.9659 70.6581 26.5029 72.427 26.5029C73.687 26.5029 74.7257 27.2344 75.2479 28.3838L74.2029 29.1153V29.1202Z" fill="#757575"/>
<path d="M78.6957 33.718C80.3673 33.718 81.2031 32.7779 81.2031 31.6285C81.2031 29.1211 77.5463 30.0605 77.5463 28.5989C77.5463 28.0767 77.9642 27.7631 78.6957 27.7631C79.4272 27.7631 80.1657 28.0767 80.4716 28.5989L81.2031 27.8674C80.7852 27.3452 79.6351 26.6074 78.5921 26.6074C77.0241 26.6074 76.189 27.5475 76.189 28.6969C76.189 31.1 79.9501 30.2649 79.9501 31.5179C79.9501 32.1451 79.5322 32.563 78.6901 32.563C77.848 32.563 77.4301 32.0408 77.0185 31.5179L76.0903 32.2564C76.7175 32.8836 77.6583 33.7264 78.7013 33.7264L78.6957 33.718ZM66.7852 33.5094H68.0452V26.823H66.7852V33.5094V33.5094Z" fill="#757575"/>
<path fill-rule="evenodd" clip-rule="evenodd" d="M67.3073 23.5898C67.8295 23.5898 68.1431 24.0077 68.1431 24.4256C68.1431 24.9478 67.7252 25.2614 67.3073 25.2614C66.8894 25.2614 66.4715 24.8435 66.4715 24.4256C66.4715 24.0077 66.8894 23.5898 67.3073 23.5898ZM65.5314 32.4707L65.7414 33.4108H64.4814C63.332 33.4108 62.8098 32.575 62.8098 31.3213V28.0698H61.5498V26.8098H62.8098V24.8372H64.0698V26.8224H65.5398V28.0824H64.0698V31.5299C64.0698 32.47 64.8013 32.47 65.5398 32.47L65.5314 32.4707Z" fill="#757575"/>
<path d="M35.7338 13.271V14.839H39.3906C39.2856 15.6748 38.9727 16.309 38.5548 16.7199C38.0326 17.2421 37.1968 17.8693 35.7338 17.8693C33.54 17.8693 31.7634 16.0934 31.7634 13.7953C31.7634 11.6015 33.5393 9.72132 35.7338 9.72132C36.9938 9.72132 37.8233 10.2435 38.4498 10.7664L39.4949 9.72132C38.5548 8.88552 37.4054 8.15332 35.7338 8.15332C32.7042 8.15332 30.0918 10.6607 30.0918 13.6833C30.0918 16.7059 32.7028 19.2133 35.7338 19.2133C37.4054 19.2133 38.6598 18.6911 39.5992 17.6453C40.6443 16.6002 40.9572 15.2422 40.9572 14.0928C40.9572 13.7792 40.9572 13.3613 40.8522 13.1527H35.7331L35.7338 13.271ZM45.0312 12.011C43.046 12.011 41.4787 13.481 41.4787 15.5635C41.4787 17.646 43.0467 19.116 45.0312 19.116C45.4989 19.1202 45.9627 19.0312 46.3956 18.8542C46.8285 18.6771 47.2218 18.4156 47.5526 18.0849C47.8833 17.7542 48.1448 17.3609 48.3218 16.928C48.4989 16.4951 48.5879 16.0312 48.5837 15.5635C48.5837 13.474 47.0157 12.011 45.0312 12.011ZM45.0312 17.751C43.9861 17.751 43.046 16.8109 43.046 15.5572C43.046 14.3035 43.9861 13.3704 45.0312 13.3704C46.0763 13.3704 47.0171 14.2104 47.0171 15.5614C47.0171 16.9124 46.077 17.7552 45.0319 17.7552L45.0312 17.751ZM62.1602 12.7418C61.7423 12.3239 61.1151 11.906 60.175 11.906C58.3991 11.906 56.8318 13.474 56.8318 15.4585C56.8318 17.443 58.3998 19.011 60.175 19.011C61.0108 19.011 61.743 18.5931 62.0559 18.1752H62.1609V18.6974C62.1609 20.0554 61.4294 20.7869 60.28 20.7869C59.3399 20.7869 58.712 20.0554 58.5041 19.5269L57.1461 20.0491C57.564 20.9892 58.6161 22.1386 60.2807 22.1386C62.1616 22.1386 63.7282 21.0935 63.7282 18.3775V11.9004H62.2582V12.7362L62.1602 12.7418ZM60.3843 17.7566C59.3392 17.7566 58.5034 16.8165 58.5034 15.5628C58.5034 14.3091 59.3392 13.369 60.3843 13.369C61.4294 13.369 62.2652 14.3091 62.2652 15.5628C62.2652 16.8165 61.4294 17.7566 60.3843 17.7566V17.7566ZM52.7564 12.0166C50.7712 12.0166 49.2039 13.4866 49.2039 15.5691C49.2039 17.6516 50.7719 19.1216 52.7564 19.1216C53.2241 19.1258 53.6879 19.0368 54.1208 18.8598C54.5537 18.6827 54.947 18.4212 55.2778 18.0905C55.6085 17.7598 55.87 17.3665 56.047 16.9336C56.2241 16.5007 56.3131 16.0368 56.3089 15.5691C56.4139 13.4796 54.7409 12.0166 52.7564 12.0166ZM52.7564 17.7566C51.7113 17.7566 50.7712 16.8165 50.7712 15.5628C50.7712 14.3091 51.7113 13.369 52.7564 13.369C53.8015 13.369 54.7416 14.2048 54.7416 15.5628C54.7416 16.9208 53.8015 17.7566 52.7564 17.7566V17.7566ZM64.8902 8.25622H66.4582V19.1216H64.8902V8.25622ZM70.7408 17.7636C69.905 17.7636 69.3828 17.3457 68.9649 16.7185L73.7711 14.7333L73.5611 14.3154C73.2475 13.4796 72.3011 12.0166 70.5315 12.0166C68.6506 12.0166 67.1883 13.4866 67.1883 15.5691C67.1841 16.0368 67.2731 16.5007 67.4502 16.9336C67.6272 17.3665 67.8887 17.7598 68.2194 18.0905C68.5502 18.4212 68.9435 18.6827 69.3764 18.8598C69.8093 19.0368 70.2731 19.1258 70.7408 19.1216C72.4124 19.1216 73.3518 18.0765 73.7704 17.5536L72.5104 16.7178C72.0925 17.345 71.5703 17.7629 70.7345 17.7629L70.7408 17.7636ZM70.6358 13.3746C71.263 13.3746 71.7852 13.6882 71.9938 14.2104L68.7549 15.5684C68.7549 14.0004 69.8 13.3746 70.6358 13.3746V13.3746Z" fill="#757575"/>
<path d="M20.2637 11.6697V30.0218C20.2637 32.0753 21.6818 33.2195 23.1833 33.2195C24.5737 33.2195 26.103 32.2463 26.103 30.0218V11.8087C26.103 9.9262 24.7127 8.75 23.1833 8.75C21.654 8.75 20.2637 10.0472 20.2637 11.6697Z" fill="#F9AB00"/>
<path d="M12.6172 20.9841V30.0211C12.6172 32.0746 14.0353 33.2189 15.5369 33.2189C16.9272 33.2189 18.4565 32.2456 18.4565 30.0211V21.1231C18.4565 19.2407 17.0662 18.0645 15.5369 18.0645C14.0075 18.0645 12.6172 19.3616 12.6172 20.9841Z" fill="#E37400"/>
<path d="M7.89037 33.2192C9.50286 33.2192 10.81 31.912 10.81 30.2995C10.81 28.6871 9.50286 27.3799 7.89037 27.3799C6.27788 27.3799 4.9707 28.6871 4.9707 30.2995C4.9707 31.912 6.27788 33.2192 7.89037 33.2192Z" fill="#E37400"/>
</svg>
