<svg width="14" height="14" viewBox="0 0 14 14" fill="none" xmlns="http://www.w3.org/2000/svg">
<path d="M6.33301 3.66634H7.66634V4.99967H6.33301V3.66634ZM6.33301 6.33301H7.66634V10.333H6.33301V6.33301ZM6.99967 0.333008C3.31967 0.333008 0.333008 3.31967 0.333008 6.99968C0.333008 10.6797 3.31967 13.6663 6.99967 13.6663C10.6797 13.6663 13.6663 10.6797 13.6663 6.99968C13.6663 3.31967 10.6797 0.333008 6.99967 0.333008ZM6.99967 12.333C4.05967 12.333 1.66634 9.93968 1.66634 6.99968C1.66634 4.05967 4.05967 1.66634 6.99967 1.66634C9.93967 1.66634 12.333 4.05967 12.333 6.99968C12.333 9.93968 9.93967 12.333 6.99967 12.333Z" fill="#030303"/>
</svg>
