<svg width="227" height="82" viewBox="0 0 227 82" fill="none" xmlns="http://www.w3.org/2000/svg">
<path d="M188.552 81.1514H182.796V71.1572H188.552V72.8936H184.915V75.0879H188.299V76.8242H184.915V79.4014H188.552V81.1514Z" fill="#00ACC8"/>
<path d="M176.714 81.1514H174.595V72.9209H171.881V71.1572H179.428V72.9209H176.714V81.1514Z" fill="#00ACC8"/>
<path d="M168.957 76.1406C168.957 76.9108 168.861 77.6126 168.67 78.2461C168.478 78.875 168.187 79.4173 167.795 79.873C167.407 80.3288 166.915 80.6797 166.318 80.9258C165.721 81.1673 165.015 81.2881 164.199 81.2881C163.383 81.2881 162.677 81.1673 162.08 80.9258C161.483 80.6797 160.989 80.3288 160.597 79.873C160.209 79.4173 159.92 78.8727 159.728 78.2393C159.537 77.6058 159.441 76.9017 159.441 76.127C159.441 75.0924 159.61 74.1924 159.947 73.4268C160.289 72.6566 160.813 72.0596 161.519 71.6357C162.226 71.2119 163.124 71 164.213 71C165.297 71 166.188 71.2119 166.886 71.6357C167.587 72.0596 168.107 72.6566 168.444 73.4268C168.786 74.1969 168.957 75.1016 168.957 76.1406ZM161.663 76.1406C161.663 76.8379 161.75 77.4395 161.923 77.9453C162.101 78.4466 162.376 78.834 162.75 79.1074C163.124 79.3763 163.607 79.5107 164.199 79.5107C164.801 79.5107 165.288 79.3763 165.662 79.1074C166.036 78.834 166.307 78.4466 166.476 77.9453C166.649 77.4395 166.735 76.8379 166.735 76.1406C166.735 75.0924 166.539 74.2676 166.147 73.666C165.755 73.0645 165.111 72.7637 164.213 72.7637C163.616 72.7637 163.128 72.9004 162.75 73.1738C162.376 73.4427 162.101 73.8301 161.923 74.3359C161.75 74.8372 161.663 75.4388 161.663 76.1406Z" fill="#00ACC8"/>
<path d="M156.791 71.1572L153.394 81.1514H151.083L147.692 71.1572H149.832L151.712 77.1045C151.744 77.2048 151.796 77.3939 151.869 77.6719C151.942 77.9453 152.015 78.237 152.088 78.5469C152.165 78.8522 152.218 79.1051 152.245 79.3057C152.272 79.1051 152.32 78.8522 152.389 78.5469C152.462 78.2415 152.532 77.9521 152.601 77.6787C152.674 77.4007 152.726 77.2093 152.758 77.1045L154.651 71.1572H156.791Z" fill="#00ACC8"/>
<path d="M142.438 72.7773C142.032 72.7773 141.672 72.8571 141.358 73.0166C141.048 73.1715 140.786 73.3971 140.571 73.6934C140.362 73.9896 140.202 74.3473 140.093 74.7666C139.984 75.1859 139.929 75.6576 139.929 76.1816C139.929 76.888 140.015 77.4919 140.189 77.9932C140.366 78.4899 140.64 78.8704 141.009 79.1348C141.378 79.3945 141.854 79.5244 142.438 79.5244C142.843 79.5244 143.249 79.4788 143.654 79.3877C144.065 79.2965 144.509 79.1667 144.987 78.998V80.7754C144.545 80.9577 144.11 81.0876 143.682 81.165C143.253 81.2471 142.773 81.2881 142.239 81.2881C141.209 81.2881 140.362 81.0762 139.696 80.6523C139.036 80.224 138.546 79.627 138.227 78.8613C137.908 78.0911 137.748 77.1934 137.748 76.168C137.748 75.4115 137.851 74.7188 138.056 74.0898C138.261 73.4609 138.562 72.9163 138.958 72.4561C139.355 71.9958 139.845 71.6403 140.428 71.3896C141.011 71.139 141.681 71.0137 142.438 71.0137C142.934 71.0137 143.431 71.0775 143.928 71.2051C144.429 71.3281 144.908 71.499 145.363 71.7178L144.68 73.4404C144.306 73.2627 143.93 73.1077 143.552 72.9756C143.174 72.8434 142.802 72.7773 142.438 72.7773Z" fill="#00ACC8"/>
<path d="M131.728 81.1514V71.1572H133.847V81.1514H131.728Z" fill="#00ACC8"/>
<path d="M121.982 81.1514V71.1572H124.101V79.4014H128.155V81.1514H121.982Z" fill="#00ACC8"/>
<path d="M118.08 76.1406C118.08 76.9108 117.985 77.6126 117.793 78.2461C117.602 78.875 117.31 79.4173 116.918 79.873C116.531 80.3288 116.039 80.6797 115.442 80.9258C114.845 81.1673 114.138 81.2881 113.323 81.2881C112.507 81.2881 111.8 81.1673 111.203 80.9258C110.606 80.6797 110.112 80.3288 109.72 79.873C109.333 79.4173 109.043 78.8727 108.852 78.2393C108.661 77.6058 108.565 76.9017 108.565 76.127C108.565 75.0924 108.733 74.1924 109.071 73.4268C109.412 72.6566 109.937 72.0596 110.643 71.6357C111.349 71.2119 112.247 71 113.336 71C114.421 71 115.312 71.2119 116.009 71.6357C116.711 72.0596 117.231 72.6566 117.568 73.4268C117.91 74.1969 118.08 75.1016 118.08 76.1406ZM110.786 76.1406C110.786 76.8379 110.873 77.4395 111.046 77.9453C111.224 78.4466 111.5 78.834 111.873 79.1074C112.247 79.3763 112.73 79.5107 113.323 79.5107C113.924 79.5107 114.412 79.3763 114.786 79.1074C115.159 78.834 115.43 78.4466 115.599 77.9453C115.772 77.4395 115.859 76.8379 115.859 76.1406C115.859 75.0924 115.663 74.2676 115.271 73.666C114.879 73.0645 114.234 72.7637 113.336 72.7637C112.739 72.7637 112.252 72.9004 111.873 73.1738C111.5 73.4427 111.224 73.8301 111.046 74.3359C110.873 74.8372 110.786 75.4388 110.786 76.1406Z" fill="#00ACC8"/>
<path d="M104.65 81.1514H102.538V76.8379H98.5796V81.1514H96.4604V71.1572H98.5796V75.0742H102.538V71.1572H104.65V81.1514Z" fill="#00ACC8"/>
<path d="M90.3785 81.1514H88.2593V72.9209H85.5455V71.1572H93.0923V72.9209H90.3785V81.1514Z" fill="#00ACC8"/>
<path d="M81.1451 81.1514L80.4205 78.7725H76.777L76.0524 81.1514H73.7692L77.2965 71.1162H79.8873L83.4283 81.1514H81.1451ZM79.9147 76.9951L79.1901 74.6709C79.1445 74.516 79.083 74.3177 79.0055 74.0762C78.9326 73.8301 78.8574 73.5817 78.7799 73.3311C78.707 73.0758 78.6477 72.8548 78.6022 72.668C78.5566 72.8548 78.4928 73.0872 78.4108 73.3652C78.3333 73.6387 78.2581 73.8984 78.1852 74.1445C78.1123 74.3906 78.0599 74.5661 78.028 74.6709L77.3102 76.9951H79.9147Z" fill="#00ACC8"/>
<path d="M68.5144 72.7773C68.1088 72.7773 67.7488 72.8571 67.4343 73.0166C67.1244 73.1715 66.8624 73.3971 66.6482 73.6934C66.4386 73.9896 66.2791 74.3473 66.1697 74.7666C66.0603 75.1859 66.0056 75.6576 66.0056 76.1816C66.0056 76.888 66.0922 77.4919 66.2654 77.9932C66.4431 78.4899 66.7166 78.8704 67.0857 79.1348C67.4548 79.3945 67.9311 79.5244 68.5144 79.5244C68.92 79.5244 69.3256 79.4788 69.7312 79.3877C70.1414 79.2965 70.5857 79.1667 71.0642 78.998V80.7754C70.6221 80.9577 70.1869 81.0876 69.7585 81.165C69.3302 81.2471 68.8494 81.2881 68.3162 81.2881C67.2862 81.2881 66.4386 81.0762 65.7732 80.6523C65.1124 80.224 64.6225 79.627 64.3035 78.8613C63.9845 78.0911 63.825 77.1934 63.825 76.168C63.825 75.4115 63.9275 74.7188 64.1326 74.0898C64.3376 73.4609 64.6384 72.9163 65.0349 72.4561C65.4314 71.9958 65.9213 71.6403 66.5046 71.3896C67.088 71.139 67.7579 71.0137 68.5144 71.0137C69.0111 71.0137 69.5079 71.0775 70.0046 71.2051C70.5059 71.3281 70.9845 71.499 71.4402 71.7178L70.7566 73.4404C70.3829 73.2627 70.0069 73.1077 69.6287 72.9756C69.2504 72.8434 68.879 72.7773 68.5144 72.7773Z" fill="#00ACC8"/>
<path d="M52.3466 75.2725L54.4315 71.1572H56.7147L53.3993 77.2617V81.1514H51.2938V77.3301L47.9784 71.1572H50.2753L52.3466 75.2725Z" fill="#00ACC8"/>
<path d="M38 71.1572H41.1104C42.4411 71.1572 43.4482 71.3441 44.1318 71.7178C44.8154 72.0915 45.1572 72.7477 45.1572 73.6865C45.1572 74.0648 45.0957 74.4066 44.9727 74.7119C44.8542 75.0173 44.681 75.2679 44.4531 75.4639C44.2253 75.6598 43.9473 75.7874 43.6191 75.8467V75.915C43.9518 75.9834 44.2526 76.1019 44.5215 76.2705C44.7904 76.4346 45.0046 76.6761 45.1641 76.9951C45.3281 77.3096 45.4102 77.7288 45.4102 78.2529C45.4102 78.859 45.262 79.3786 44.9658 79.8115C44.6696 80.2445 44.2458 80.5771 43.6943 80.8096C43.1475 81.0374 42.4958 81.1514 41.7393 81.1514H38V71.1572ZM40.1191 75.1152H41.3496C41.9648 75.1152 42.391 75.0195 42.6279 74.8281C42.8649 74.6322 42.9834 74.3451 42.9834 73.9668C42.9834 73.584 42.8421 73.3105 42.5596 73.1465C42.2816 72.9779 41.8395 72.8936 41.2334 72.8936H40.1191V75.1152ZM40.1191 76.7969V79.4014H41.5C42.138 79.4014 42.5824 79.2783 42.833 79.0322C43.0837 78.7861 43.209 78.4557 43.209 78.041C43.209 77.7949 43.1543 77.5785 43.0449 77.3916C42.9355 77.2048 42.751 77.0589 42.4912 76.9541C42.236 76.8493 41.8828 76.7969 41.4316 76.7969H40.1191Z" fill="#00ACC8"/>
<path d="M202.602 0.932129C210.113 0.932129 215.733 2.56673 219.461 5.83594C223.217 9.10514 225.094 13.7523 225.094 19.7773C225.094 22.4792 224.703 25.0729 223.919 27.5586C223.163 30.0443 221.906 32.2598 220.15 34.2051C218.421 36.1504 216.111 37.6904 213.22 38.8252C210.356 39.96 206.817 40.5273 202.602 40.5273H198.103V60.1831H182.095V0.932129H202.602ZM202.237 13.8604H198.103V27.4775H201.264C202.642 27.4775 203.926 27.2479 205.114 26.7886C206.303 26.3022 207.249 25.5322 207.951 24.4785C208.681 23.3978 209.046 21.9658 209.046 20.1826C209.046 18.3184 208.492 16.8053 207.384 15.6436C206.276 14.4548 204.561 13.8604 202.237 13.8604Z" fill="#00ACC8"/>
<path d="M105.585 30.4766C105.585 35.0426 105.031 39.2034 103.923 42.959C102.843 46.6875 101.14 49.9027 98.8169 52.6045C96.4933 55.3063 93.5078 57.3867 89.8604 58.8457C86.2129 60.2777 81.8494 60.9937 76.77 60.9937C71.7987 60.9937 67.4893 60.2777 63.8418 58.8457C60.2214 57.3867 57.2358 55.3198 54.8853 52.645C52.5347 49.9432 50.792 46.7145 49.6572 42.959C48.5225 39.2034 47.9551 35.0156 47.9551 30.3955C47.9551 24.2354 48.9683 18.8857 50.9946 14.3467C53.048 9.7806 56.2091 6.25472 60.478 3.76904C64.7469 1.25635 70.2046 0 76.8511 0C83.6056 0 89.0903 1.25635 93.3052 3.76904C97.547 6.28174 100.654 9.82113 102.626 14.3872C104.599 18.9533 105.585 24.3164 105.585 30.4766ZM64.8145 30.4766C64.8145 34.043 65.2197 37.1095 66.0303 39.6763C66.8408 42.243 68.1242 44.2153 69.8804 45.5933C71.6366 46.9712 73.9331 47.6602 76.77 47.6602C79.715 47.6602 82.0521 46.9712 83.7812 45.5933C85.5374 44.2153 86.7938 42.243 87.5503 39.6763C88.3338 37.1095 88.7256 34.043 88.7256 30.4766C88.7256 25.127 87.834 20.8986 86.0508 17.7915C84.2676 14.6844 81.201 13.1309 76.8511 13.1309C73.9601 13.1309 71.623 13.8333 69.8398 15.2383C68.0837 16.6432 66.8003 18.6426 65.9897 21.2363C65.2062 23.8301 64.8145 26.9102 64.8145 30.4766Z" fill="#00ACC8"/>
<path d="M2 60.1831V0.932129H18.0083V47.2549H40.8252V60.1831H2Z" fill="#00ACC8"/>
<path fill-rule="evenodd" clip-rule="evenodd" d="M141 0C126.088 0 114 12.0883 114 27V34C114 48.9117 126.088 61 141 61H145C159.912 61 172 48.9117 172 34V27C172 12.0883 159.912 0 145 0H141ZM158.009 34.9474C158.069 34.8026 158.1 34.6474 158.1 34.4906L158.09 26.5454C158.09 26.2286 157.964 25.9247 157.74 25.7006C157.516 25.4766 157.212 25.3507 156.895 25.3507H148.877C148.725 25.351 148.574 25.3214 148.434 25.2634C148.293 25.2054 148.165 25.1202 148.057 25.0127C147.95 24.9052 147.864 24.7775 147.806 24.6369C147.747 24.4964 147.717 24.3457 147.717 24.1935V16.1947C147.717 15.8783 147.592 15.5748 147.368 15.3509C147.145 15.1269 146.842 15.0007 146.525 15H138.564C138.248 15.0007 137.945 15.1269 137.721 15.3509C137.498 15.5748 137.372 15.8783 137.372 16.1947V24.1935C137.372 24.3457 137.342 24.4964 137.284 24.6369C137.225 24.7775 137.14 24.9052 137.032 25.0127C136.924 25.1202 136.797 25.2054 136.656 25.2634C136.515 25.3214 136.364 25.351 136.212 25.3507H128.195C127.878 25.3507 127.574 25.4766 127.35 25.7006C127.126 25.9247 127 26.2286 127 26.5454V34.4959C127.001 34.8123 127.127 35.1155 127.351 35.339C127.575 35.5625 127.878 35.688 128.195 35.688H136.212C136.52 35.688 136.815 35.8102 137.032 36.0277C137.25 36.2452 137.372 36.5403 137.372 36.8479V44.8413C137.372 45.1577 137.498 45.4612 137.721 45.6851C137.945 45.9091 138.248 46.0353 138.564 46.036H146.536C146.853 46.0353 147.156 45.9091 147.379 45.6851C147.603 45.4612 147.728 45.1577 147.728 44.8413V36.8425C147.728 36.5349 147.85 36.2399 148.068 36.0224C148.285 35.8048 148.58 35.6826 148.888 35.6826H156.906C157.062 35.683 157.218 35.6524 157.363 35.5927C157.508 35.5329 157.639 35.4452 157.75 35.3344C157.861 35.2237 157.949 35.0922 158.009 34.9474Z" fill="#00ACC8"/>
</svg>
