<svg width="15" height="15" viewBox="0 0 15 15" fill="none" xmlns="http://www.w3.org/2000/svg">
<path d="M14.2835 12.7672L11.1097 9.64154C11.8738 8.63975 12.2863 7.42037 12.2849 6.16743C12.2849 2.96704 9.64111 0.363281 6.39149 0.363281C3.14186 0.363281 0.498047 2.96704 0.498047 6.16743C0.498047 9.36781 3.14186 11.9716 6.39149 11.9716C7.6637 11.9729 8.90185 11.5667 9.91905 10.8142L13.0928 13.9398C13.2534 14.0813 13.463 14.1568 13.6784 14.1508C13.8938 14.1449 14.0987 14.058 14.2511 13.9079C14.4034 13.7579 14.4917 13.556 14.4977 13.3439C14.5037 13.1318 14.4271 12.9254 14.2835 12.7672ZM2.18189 6.16743C2.18189 5.34746 2.42878 4.54591 2.89133 3.86413C3.35389 3.18236 4.01134 2.65098 4.78054 2.33719C5.54975 2.0234 6.39616 1.9413 7.21274 2.10127C8.02932 2.26124 8.7794 2.65609 9.36812 3.23589C9.95685 3.81569 10.3578 4.55441 10.5202 5.35862C10.6826 6.16283 10.5993 6.99641 10.2807 7.75396C9.96204 8.51151 9.42248 9.159 8.73022 9.61455C8.03795 10.0701 7.22407 10.3132 6.39149 10.3132C5.27544 10.3119 4.20549 9.87471 3.41633 9.09751C2.62717 8.3203 2.18323 7.26656 2.18189 6.16743Z" fill="#9997A7"/>
</svg>
