<svg width="20" height="18" viewBox="0 0 20 18" fill="none" xmlns="http://www.w3.org/2000/svg">
<path d="M18.5373 7.25356L2.8973 0.769335C2.23841 0.496136 1.49404 0.616318 0.954713 1.08282C0.415388 1.5494 0.189815 2.2683 0.366094 2.95894L1.75819 8.41354H8.57408C8.88772 8.41354 9.14203 8.6676 9.14203 8.98101C9.14203 9.29439 8.88776 9.54848 8.57408 9.54848H1.75819L0.366094 15.003C0.189815 15.6937 0.41535 16.4126 0.954713 16.8792C1.49513 17.3466 2.23959 17.4653 2.89734 17.1927L18.5373 10.7085C19.2494 10.4132 19.6917 9.75132 19.6917 8.98101C19.6917 8.21071 19.2494 7.54874 18.5373 7.25356Z" fill="white"/>
</svg>