<svg width="73" height="31" viewBox="0 0 73 31" fill="none" xmlns="http://www.w3.org/2000/svg">
<mask id="mask0_1156_7437" style="mask-type:alpha" maskUnits="userSpaceOnUse" x="0" y="-1" width="73" height="32">
<path d="M0.75 -0.000976562H72.9838V30.1261H0.75V-0.000976562Z" fill="#635BFF"/>
</mask>
<g mask="url(#mask0_1156_7437)">
<path fill-rule="evenodd" clip-rule="evenodd" d="M8.21201 13.6866C6.67128 13.1229 5.8269 12.6845 5.8269 11.9956C5.8269 11.411 6.31241 11.0771 7.17784 11.0771C8.76084 11.0771 10.386 11.6825 11.5047 12.2252L12.1379 8.3633C11.2514 7.94574 9.43615 7.25684 6.92456 7.25684C5.15159 7.25684 3.67402 7.71605 2.61879 8.572C1.52113 9.4696 0.951249 10.7639 0.951249 12.3296C0.951249 15.1686 2.70316 16.3795 5.55257 17.4024C7.38885 18.0495 8.001 18.5088 8.001 19.2185C8.001 19.9074 7.40991 20.304 6.33346 20.304C5.00374 20.304 2.80875 19.6569 1.37344 18.822L0.740234 22.7256C1.96437 23.4145 4.2439 24.1242 6.60796 24.1242C8.48635 24.1242 10.0483 23.6859 11.1037 22.8509C12.2856 21.9323 12.8977 20.5755 12.8977 18.822C12.8977 15.9201 11.1037 14.7094 8.21201 13.6866ZM23.2058 11.411L23.839 7.56998H20.4961V2.90711L16.0017 3.63859L15.3526 7.56998L13.7718 7.82362L13.1801 11.411H15.3461V18.9472C15.3461 20.9095 15.8527 22.2664 16.8869 23.1014C17.7523 23.7903 18.9975 24.1242 20.7494 24.1242C22.1002 24.1242 22.9233 23.8947 23.4932 23.7485V19.6777C23.1766 19.7614 22.4591 19.9074 21.9735 19.9074C20.9394 19.9074 20.4961 19.3856 20.4961 18.1957V11.411H23.2058ZM33.2445 7.34562C31.7671 7.34562 30.5851 8.11279 30.1208 9.49058L29.8042 7.56998H25.2241V23.8111H30.4584V13.269C31.1129 12.4757 32.0415 12.1889 33.3079 12.1889C33.5824 12.1889 33.8777 12.1889 34.2366 12.2515V7.47087C33.8777 7.38742 33.5611 7.34562 33.2445 7.34562ZM38.1414 5.96251C39.6611 5.96251 40.8852 4.73095 40.8852 3.22791C40.8852 1.70389 39.6611 0.493164 38.1414 0.493164C36.6005 0.493164 35.3764 1.70389 35.3764 3.22791C35.3764 4.73095 36.6005 5.96251 38.1414 5.96251ZM35.503 7.56998H40.7586V23.8111H35.503V7.56998ZM55.652 9.03121C54.7232 7.84131 53.4358 7.25684 51.7894 7.25684C50.2697 7.25684 48.94 7.88311 47.6947 9.19827L47.4203 7.56998H42.819V29.8233L48.0535 28.9675V23.7485C48.8555 23.999 49.6787 24.1242 50.4174 24.1242C51.7261 24.1242 53.6257 23.7903 55.1031 22.2038C56.5172 20.6798 57.235 18.3209 57.235 15.2104C57.235 12.4549 56.7072 10.3674 55.652 9.03121ZM51.3039 19.0515C50.8817 19.8448 50.2275 20.2624 49.4676 20.2624C48.94 20.2624 48.4756 20.1579 48.0535 19.9492V12.2252C48.94 11.3068 49.742 11.2023 50.0375 11.2023C51.3672 11.2023 52.0215 12.6219 52.0215 15.3983C52.0215 16.9848 51.7894 18.2165 51.3039 19.0515ZM72.2419 15.5444C72.2419 12.9559 71.672 10.91 70.5533 9.4696C69.4135 8.00836 67.7038 7.25684 65.5299 7.25684C61.0763 7.25684 58.3114 10.5134 58.3114 15.7323C58.3114 18.6549 59.05 20.8468 60.5064 22.2454C61.8151 23.498 63.6936 24.1242 66.1208 24.1242C68.3581 24.1242 70.4266 23.6024 71.7353 22.7465L71.1654 19.1977C69.8778 19.8866 68.3793 20.2624 66.6907 20.2624C65.6776 20.2624 64.9811 20.0535 64.4745 19.6151C63.9257 19.1559 63.6091 18.4044 63.5037 17.3397H72.1785C72.1996 17.0892 72.2419 15.9201 72.2419 15.5444ZM63.4614 14.1666C63.6091 11.8494 64.2423 10.7639 65.4454 10.7639C66.6274 10.7639 67.2396 11.8704 67.3239 14.1666H63.4614Z" fill="#635BFF"/>
</g>
</svg>
