<svg width="26" height="24" viewBox="0 0 26 24" fill="none" xmlns="http://www.w3.org/2000/svg">
<path d="M9.25 0.75C5.79822 0.75 3 3.54822 3 7C3 10.4518 5.79822 13.25 9.25 13.25C12.7018 13.25 15.5 10.4518 15.5 7C15.5 3.54822 12.7018 0.75 9.25 0.75ZM5.5 7C5.5 4.92893 7.17893 3.25 9.25 3.25C11.3211 3.25 13 4.92893 13 7C13 9.07107 11.3211 10.75 9.25 10.75C7.17893 10.75 5.5 9.07107 5.5 7Z" fill="#00ACC8"/>
<path d="M19.1355 7.27285C18.7839 7.09355 18.3947 7.00008 18 7.00008V4.50008C18.7895 4.50008 19.5678 4.68695 20.2711 5.04556C20.3486 5.08506 20.4249 5.12651 20.5 5.16987C21.1067 5.52017 21.634 5.99461 22.0466 6.56319C22.5103 7.20215 22.8162 7.94184 22.9391 8.72171C23.0619 9.50158 22.9984 10.2995 22.7537 11.0501C22.5089 11.8007 22.0899 12.4826 21.5309 13.0402C20.9719 13.5977 20.2888 14.0149 19.5376 14.2577C18.8691 14.4738 18.1635 14.5462 17.4669 14.4715C17.3807 14.4623 17.2946 14.4508 17.2088 14.437C16.4298 14.3122 15.6913 14.0047 15.0539 13.5399L15.0526 13.5389L16.5263 11.5195C16.8452 11.7521 17.2146 11.906 17.6044 11.9684C17.9942 12.0309 18.3932 12.0002 18.7688 11.8788C19.1444 11.7574 19.4859 11.5488 19.7654 11.27C20.0449 10.9913 20.2544 10.6503 20.3768 10.275C20.4991 9.89972 20.5309 9.50079 20.4695 9.11087C20.408 8.72094 20.2551 8.35111 20.0233 8.03164C19.7914 7.71217 19.4872 7.45215 19.1355 7.27285Z" fill="#00ACC8"/>
<path d="M22.9976 23.25C22.9976 22.5937 22.8684 21.9438 22.6172 21.3375C22.3661 20.7312 21.9979 20.1802 21.5339 19.7161C21.0698 19.2521 20.5188 18.8839 19.9125 18.6328C19.3062 18.3816 18.6563 18.2524 18 18.2524V15.75C18.8526 15.75 19.698 15.8954 20.5 16.1789C20.6245 16.2229 20.7479 16.2703 20.8701 16.3209C21.7801 16.6978 22.6069 17.2503 23.3033 17.9467C23.9997 18.6431 24.5522 19.4699 24.9291 20.3799C24.9797 20.5021 25.0271 20.6255 25.0711 20.75C25.3546 21.552 25.5 22.3974 25.5 23.25H22.9976Z" fill="#00ACC8"/>
<path d="M18 23.25H15.5C15.5 19.7982 12.7018 17 9.25 17C5.79822 17 3 19.7982 3 23.25H0.5C0.5 18.4175 4.41751 14.5 9.25 14.5C14.0825 14.5 18 18.4175 18 23.25Z" fill="#00ACC8"/>
</svg>
