<svg width="14" height="18" viewBox="0 0 14 18" fill="none" xmlns="http://www.w3.org/2000/svg">
<path d="M4.35085 6.29578L4.34916 6.29715L4.34756 6.29871L4.35085 6.29578ZM11.8164 6.15588C11.7642 6.10559 11.7064 6.06159 11.6439 6.02477C11.5556 5.97277 11.4575 5.93944 11.3557 5.92685C11.254 5.91426 11.1507 5.92268 11.0524 5.95158C10.954 5.98048 10.8626 6.02925 10.7838 6.09488C10.705 6.16051 10.6406 6.24159 10.5944 6.33313C10.336 6.84215 9.97971 7.29514 9.54587 7.66613C9.61221 7.29234 9.64567 6.91344 9.64585 6.53381C9.64724 5.37888 9.34257 4.24421 8.76284 3.24533C8.18312 2.24644 7.34905 1.41902 6.34556 0.847306C6.23501 0.784641 6.11036 0.751088 5.9833 0.749795C5.85623 0.748501 5.73092 0.77951 5.61913 0.839912C5.50733 0.900314 5.41271 0.988127 5.34415 1.09511C5.27558 1.2021 5.23533 1.32475 5.22715 1.45156C5.18518 2.16269 4.99927 2.8579 4.68069 3.49506C4.36211 4.13222 3.91749 4.69807 3.37377 5.15833L3.20092 5.29895C2.63236 5.68152 2.12909 6.15313 1.71045 6.69568C1.05968 7.51551 0.608879 8.47568 0.393788 9.50006C0.178697 10.5244 0.205233 11.5848 0.471292 12.5972C0.737351 13.6095 1.23562 14.5459 1.92657 15.3322C2.61753 16.1185 3.48217 16.7329 4.45193 17.1268C4.56579 17.1734 4.68935 17.1912 4.81172 17.1786C4.93408 17.1661 5.05149 17.1237 5.15358 17.0551C5.25566 16.9865 5.3393 16.8938 5.3971 16.7852C5.4549 16.6766 5.4851 16.5555 5.48502 16.4325C5.48449 16.3529 5.47189 16.2739 5.44767 16.1981C5.27988 15.5674 5.23156 14.9108 5.30521 14.2623C6.01489 15.6009 7.15406 16.6619 8.53958 17.2748C8.7087 17.3504 8.89989 17.3606 9.07609 17.3033C10.1708 16.95 11.1569 16.3227 11.9408 15.4809C12.7247 14.6391 13.2804 13.6108 13.555 12.4938C13.8296 11.3768 13.814 10.2081 13.5097 9.09882C13.2054 7.98952 12.6225 6.97646 11.8164 6.15588ZM8.88784 15.7792C8.23408 15.4478 7.65737 14.9826 7.19521 14.4138C6.73304 13.8449 6.39578 13.1852 6.20534 12.4774C6.14718 12.2391 6.10219 11.9978 6.07058 11.7545C6.04916 11.5996 5.97986 11.4553 5.87237 11.3417C5.76489 11.2281 5.62459 11.1509 5.47109 11.121C5.42381 11.1116 5.37572 11.107 5.32752 11.1071C5.1957 11.107 5.0662 11.1417 4.95208 11.2077C4.83796 11.2737 4.74325 11.3686 4.6775 11.4828C4.0552 12.5561 3.74225 13.7808 3.77332 15.0211C3.226 14.5956 2.76858 14.0657 2.42758 13.462C2.08657 12.8584 1.86876 12.1931 1.78677 11.5047C1.70478 10.8163 1.76024 10.1184 1.94994 9.45158C2.13963 8.78475 2.45979 8.1622 2.89185 7.62002C3.21991 7.19389 3.61567 6.82448 4.06335 6.52652C4.08274 6.51401 4.10133 6.50031 4.11902 6.4855C4.11902 6.4855 4.34154 6.30139 4.34914 6.29717C5.41766 5.39339 6.17765 4.17881 6.52319 2.82266C7.34037 3.57808 7.88526 4.58218 8.07326 5.67904C8.26126 6.7759 8.08184 7.90414 7.56287 8.88857C7.4943 9.01994 7.46617 9.16866 7.48203 9.31599C7.49789 9.46332 7.55703 9.60265 7.65198 9.71641C7.74694 9.83017 7.87346 9.91326 8.01558 9.9552C8.1577 9.99714 8.30906 9.99605 8.45056 9.95207C9.5994 9.59195 10.6103 8.88851 11.3473 7.93645C11.7902 8.59067 12.0798 9.33641 12.1944 10.1181C12.3091 10.8998 12.2458 11.6973 12.0094 12.4511C11.773 13.205 11.3695 13.8957 10.829 14.472C10.2886 15.0482 9.625 15.4951 8.88782 15.7792L8.88784 15.7792Z" fill="#EB5757"/>
</svg>
