<svg width="85" height="27" viewBox="0 0 85 27" fill="none" xmlns="http://www.w3.org/2000/svg">
<path d="M59.9261 5.64137H55.435C55.3773 5.64574 55.3231 5.67102 55.2822 5.71263C55.2414 5.75424 55.2165 5.8094 55.2122 5.86809V8.51307C55.2165 8.57175 55.2414 8.62691 55.2822 8.66852C55.3231 8.71013 55.3773 8.73541 55.435 8.73978H59.9261C59.9837 8.73541 60.0379 8.71013 60.0788 8.66852C60.1197 8.62691 60.1445 8.57175 60.1488 8.51307V5.86809C60.1488 5.71694 60.0746 5.64137 59.9261 5.64137ZM59.8519 9.57106H51.2407C51.1294 9.57106 50.9809 9.68441 50.9438 9.79777L49.8303 14.1053L49.7561 14.332L48.457 9.7222C48.4199 9.60884 48.3085 9.49549 48.16 9.49549H44.8195C44.7082 9.49549 44.5597 9.60884 44.5226 9.7222L43.2606 14.0297L43.1864 14.2565L43.1121 14.0297L42.0729 9.79777C42.0358 9.68441 41.9244 9.57106 41.7759 9.57106H35.0578V5.86809C35.0578 5.75473 34.9093 5.60359 34.7608 5.67916L30.4924 7.00165C30.381 7.03943 30.2697 7.11501 30.2697 7.22836V9.57106H29.1562C29.0985 9.57542 29.0444 9.60071 29.0035 9.64232C28.9626 9.68393 28.9378 9.73909 28.9335 9.79777V13.0851C28.9378 13.1438 28.9626 13.1989 29.0035 13.2406C29.0444 13.2822 29.0985 13.3075 29.1562 13.3118H30.2697V17.3171C30.2697 20.151 31.7915 21.4735 34.6124 21.4735C35.763 21.4735 36.9136 21.209 37.656 20.7933V17.3926C37.656 17.2037 37.5075 17.1659 37.4333 17.2037C36.9879 17.3926 36.6167 17.4682 36.2084 17.4682C35.4661 17.4682 35.0578 17.1659 35.0578 16.2591V13.3118H37.4704C37.528 13.3075 37.5822 13.2822 37.6231 13.2406C37.6639 13.1989 37.6888 13.1438 37.6931 13.0851V10.3268L40.8851 21.1334C40.9222 21.2468 41.0336 21.3601 41.1821 21.3601H44.7082C44.8195 21.3601 44.968 21.2468 45.0051 21.1334L46.5269 16.3347L48.0116 21.0956C48.0487 21.209 48.1972 21.3223 48.3085 21.3223H51.8346C51.946 21.3223 52.0944 21.209 52.1315 21.0956L55.3607 10.2512V21.0956C55.365 21.1543 55.3898 21.2095 55.4307 21.2511C55.4716 21.2927 55.5258 21.318 55.5834 21.3223H59.889C59.9466 21.318 60.0008 21.2927 60.0417 21.2511C60.0826 21.2095 60.1074 21.1543 60.1117 21.0956V9.79777C60.0746 9.64663 59.9632 9.57106 59.8519 9.57106ZM65.5307 5.64137H61.2252C61.1675 5.64574 61.1134 5.67102 61.0725 5.71263C61.0316 5.75424 61.0068 5.8094 61.0025 5.86809V21.0956C61.0068 21.1543 61.0316 21.2095 61.0725 21.2511C61.1134 21.2927 61.1675 21.318 61.2252 21.3223H65.5307C65.5884 21.318 65.6426 21.2927 65.6834 21.2511C65.7243 21.2095 65.7492 21.1543 65.7534 21.0956V5.86809C65.7534 5.71694 65.6421 5.64137 65.5307 5.64137ZM71.2839 5.64137H66.7927C66.7351 5.64574 66.6809 5.67102 66.64 5.71263C66.5991 5.75424 66.5743 5.8094 66.57 5.86809V8.51307C66.5743 8.57175 66.5991 8.62691 66.64 8.66852C66.6809 8.71013 66.7351 8.73541 66.7927 8.73978H71.2839C71.3415 8.73541 71.3957 8.71013 71.4366 8.66852C71.4774 8.62691 71.5023 8.57175 71.5066 8.51307V5.86809C71.5066 5.71694 71.4323 5.64137 71.2839 5.64137ZM71.2096 9.57106H66.9041C66.8464 9.57542 66.7922 9.60071 66.7514 9.64232C66.7105 9.68393 66.6857 9.73909 66.6814 9.79777V21.0956C66.6857 21.1543 66.7105 21.2095 66.7514 21.2511C66.7922 21.2927 66.8464 21.318 66.9041 21.3223H71.2096C71.2673 21.318 71.3215 21.2927 71.3623 21.2511C71.4032 21.2095 71.428 21.1543 71.4323 21.0956V9.79777C71.4323 9.64663 71.321 9.57106 71.2096 9.57106ZM78.3361 9.26877C74.5502 9.26877 71.8777 12.1027 71.8777 15.39V15.4278C71.8777 18.7151 74.5501 21.5113 78.299 21.5113C82.0849 21.5113 84.7573 18.6773 84.7573 15.39V15.3522C84.7944 12.0649 82.122 9.26877 78.3361 9.26877ZM80.1919 15.4278C80.1919 16.5236 79.4125 17.4682 78.3361 17.4682C77.2968 17.4682 76.4431 16.5614 76.4431 15.39V15.3522C76.4431 14.2565 77.2226 13.3118 78.299 13.3118C79.3382 13.3118 80.1919 14.2187 80.1919 15.39V15.4278ZM13.233 0.578125C6.25506 0.578125 0.576172 6.3593 0.576172 13.463C0.576172 20.5666 6.25506 26.3478 13.233 26.3478C20.2481 26.3856 25.927 20.6044 25.927 13.463C25.927 6.32151 20.2481 0.578125 13.233 0.578125ZM13.233 22.9849C8.1109 22.9849 3.91669 18.7151 3.91669 13.463C3.91669 8.24857 8.1109 3.97881 13.233 3.97881C18.3923 3.97881 22.5865 8.24857 22.5865 13.463C22.5865 18.7151 18.3923 22.9849 13.233 22.9849Z" fill="#E31E26"/>
<path d="M16.3886 13.3468C17.8442 13.3468 19.0242 12.1055 19.0242 10.5743C19.0242 9.04307 17.8442 7.80176 16.3886 7.80176C14.9329 7.80176 13.7529 9.04307 13.7529 10.5743C13.7529 12.1055 14.9329 13.3468 16.3886 13.3468Z" fill="#E31E26"/>
<path d="M16.3886 19.9845C17.8442 19.9845 19.0242 18.7432 19.0242 17.212C19.0242 15.6808 17.8442 14.4395 16.3886 14.4395C14.9329 14.4395 13.7529 15.6808 13.7529 17.212C13.7529 18.7432 14.9329 19.9845 16.3886 19.9845Z" fill="#E31E26"/>
<path d="M10.079 19.9845C11.5346 19.9845 12.7146 18.7432 12.7146 17.212C12.7146 15.6808 11.5346 14.4395 10.079 14.4395C8.62337 14.4395 7.44336 15.6808 7.44336 17.212C7.44336 18.7432 8.62337 19.9845 10.079 19.9845Z" fill="#E31E26"/>
<path d="M10.079 13.3468C11.5346 13.3468 12.7146 12.1055 12.7146 10.5743C12.7146 9.04307 11.5346 7.80176 10.079 7.80176C8.62337 7.80176 7.44336 9.04307 7.44336 10.5743C7.44336 12.1055 8.62337 13.3468 10.079 13.3468Z" fill="#E31E26"/>
</svg>
